<?xml version="1.0" encoding="UTF-8" standalone="no"?>
<svg
   xmlns:dc="http://purl.org/dc/elements/1.1/"
   xmlns:cc="http://creativecommons.org/ns#"
   xmlns:rdf="http://www.w3.org/1999/02/22-rdf-syntax-ns#"
   xmlns:svg="http://www.w3.org/2000/svg"
   xmlns="http://www.w3.org/2000/svg"
   xmlns:xlink="http://www.w3.org/1999/xlink"
   xmlns:sodipodi="http://sodipodi.sourceforge.net/DTD/sodipodi-0.dtd"
   xmlns:inkscape="http://www.inkscape.org/namespaces/inkscape"
   width="555px"
   height="485px"
   viewBox="0 0 572 500"
   version="1.1"
   aria-labelledby="connectivity-title"
   class="WhatIs__StyledSvg-e45kb-0 dtVdNT"
   id="svg134"
   sodipodi:docname="hmhmhmh.svg"
   inkscape:version="0.92.3 (2405546, 2018-03-11)">
  <metadata
     id="metadata140">
    <rdf:RDF>
      <cc:Work
         rdf:about="">
        <dc:format>image/svg+xml</dc:format>
        <dc:type
           rdf:resource="http://purl.org/dc/dcmitype/StillImage" />
      </cc:Work>
    </rdf:RDF>
  </metadata>
  <defs
     id="defs138" />
  <sodipodi:namedview
     pagecolor="#ffffff"
     bordercolor="#666666"
     borderopacity="1"
     objecttolerance="10"
     gridtolerance="10"
     guidetolerance="10"
     inkscape:pageopacity="0"
     inkscape:pageshadow="2"
     inkscape:window-width="2332"
     inkscape:window-height="1673"
     id="namedview136"
     showgrid="false"
     inkscape:zoom="1.9463918"
     inkscape:cx="258.84229"
     inkscape:cy="214.52559"
     inkscape:window-x="10050"
     inkscape:window-y="86"
     inkscape:window-maximized="0"
     inkscape:current-layer="svg134" />
  <linearGradient
     id="whatis-linearGradient-1"
     gradientUnits="userSpaceOnUse"
     x1="85.32"
     y1="76.6839"
     x2="191.27"
     y2="76.6839"
     gradientTransform="matrix(1.2550984,-0.24624052,-0.24624052,-1.2550984,36.331566,521.64077)">
    <stop
       offset="0"
       stop-color="#FFFFFF"
       stop-opacity="0"
       id="stop16" />
    <stop
       offset="0.86"
       stop-color="#80C0FF"
       id="stop18" />
  </linearGradient>
  <path
     d="m 260.91555,395.64684 c -12.48348,-3.36535 -24.428,-8.48134 -35.47569,-15.1979 -21.07379,-15.53393 -51.39279,-5.24523 -71.52624,8.06329 -18.17217,12.01131 -19.16426,20.57385 -27.2956,26.49647 52.555,-29.88808 134.29753,-19.36186 134.29753,-19.36186 z"
     id="path21"
     style="fill:url(#whatis-linearGradient-1);stroke-width:1.27902555"
     inkscape:connector-curvature="0" />
  <linearGradient
     id="whatis-linearGradient-2"
     gradientUnits="userSpaceOnUse"
     x1="108.75"
     y1="68.8989"
     x2="203.49"
     y2="68.8989"
     gradientTransform="matrix(1.2550984,-0.24624052,-0.24624052,-1.2550984,36.331566,521.64077)">
    <stop
       offset="0"
       stop-color="#FFFFFF"
       stop-opacity="0"
       id="stop23" />
    <stop
       offset="0.86"
       stop-color="#80C0FF"
       id="stop25" />
  </linearGradient>
  <path
     d="m 155.0942,404.49501 c 0,0 2.26395,-1.74759 16.17096,-8.72514 21.59903,-10.75461 50.45248,-23.59722 71.52626,-8.06329 24.75414,14.69457 35.07924,13.1772 35.07924,13.1772 0,0 -34.86979,4.96427 -49.9441,2.60383 -12.01898,-0.34004 -28.86328,-5.01218 -72.83236,1.0074 z"
     id="path28"
     style="fill:url(#whatis-linearGradient-2);stroke-width:1.27902555"
     inkscape:connector-curvature="0" />
  <g
     id="whatis-boat"
     transform="matrix(1.2550984,-0.24624052,0.24624052,1.2550984,-87.034936,-107.16356)">
    <path
       d="m 113.3,332.07 c 0,0 41.09,-15.76 52.38,-15.72 14,14.16 31.45,36.4 75.94,53.27 50.61,19.19 84.26,23.09 84.26,23.09 0,0 -11.7,49.22 -61.1,51 -49.4,1.78 -69.26,-2.5 -92.91,-8.92 C 128.2,419.4 91.09,386.53 113.3,332.07 Z"
       id="path30"
       inkscape:connector-curvature="0"
       style="fill:#074480" />
    <path
       d="m 272.364,203.899 0.118,0.021 c 1.675,0.298 2.791,1.897 2.493,3.572 l -29.85,167.745 c -0.298,1.675 -1.897,2.791 -3.572,2.493 l -0.118,-0.021 c -1.675,-0.298 -2.791,-1.897 -2.493,-3.572 l 29.85,-167.745 c 0.298,-1.675 1.897,-2.791 3.572,-2.493 z"
       id="path32"
       inkscape:connector-curvature="0"
       style="fill:#4d10e1" />
    <path
       d="m 239.74,215.26 c 0,0 49.19,-0.58 73.83,14.11 -19.83,19.05 -19.06,37 -19.06,37 l -73.38,-12.75 c 0,0 5.39,-31.62 18.61,-38.36 z"
       id="path34"
       inkscape:connector-curvature="0"
       style="fill:#b3d9ff" />
    <path
       d="m 295.59,258.5 c -0.706,2.585 -1.072,5.251 -1.09,7.93 l -73.38,-12.75 c 0,0 0.57,-3.35 1.79,-8.09 2.55,-9.87 74.43,5.88 72.68,12.91 z"
       id="path36"
       inkscape:connector-curvature="0"
       style="fill:#80c0ff" />
    <path
       d="m 165.68,316.35 c 14,14.16 31.45,36.4 75.94,53.27 50.61,19.19 84.26,23.09 84.26,23.09 0,0 -11.7,49.22 -61.1,51 -49.4,1.78 -69.26,-2.5 -92.91,-8.92 C 128.28,410 143,343.61 165.68,316.35 Z"
       id="path38"
       inkscape:connector-curvature="0"
       style="fill:#2c85de" />
    <path
       d="m 213.3,387 c -3.57,4.59 -3.43,9.43 -1.39,12.94 2.69,4.76 9.39,4.19 12.39,0.73 2.59,-2.68 3.22,-8.81 0.85,-12.79 -2.33,-4.2 -8.3,-4.88 -11.85,-0.88 z m 46.7,12.3 c -3.19,4.11 -3.07,8.43 -1.24,11.58 2.41,4.26 8.41,3.75 11.09,0.65 2.32,-2.4 2.88,-7.88 0.76,-11.45 -1.89,-3.085 -5.922,-4.053 -9.007,-2.164 -0.606,0.372 -1.147,0.839 -1.603,1.384 z"
       id="path40"
       inkscape:connector-curvature="0"
       style="fill:#99ccff" />
    <path
       d="m 214.53,253.49 c 0,0 46.85,-3.94 88.06,16.89 -8.59,11.23 -20.77,46.38 -10.69,76.62 0,0 -74.23,-2.16 -101.93,-27.21 1.44,-37.03 24.56,-66.3 24.56,-66.3 z"
       id="path42"
       inkscape:connector-curvature="0"
       style="fill:#b3d9ff" />
    <path
       d="m 291.16,406.11 c -2.62,3.37 -2.52,6.91 -1,9.49 2,3.49 6.89,3.07 9.09,0.53 1.9,-2 2.36,-6.46 0.63,-9.38 -1.541,-2.534 -4.844,-3.339 -7.378,-1.798 -0.509,0.309 -0.962,0.7 -1.342,1.158 z"
       id="path44"
       inkscape:connector-curvature="0"
       style="fill:#99ccff" />
    <g
       id="g58"
       style="opacity:0.3">
      <g
         id="g56">
        <defs
           id="defs47">
          <path
             id="whatis-href-path-1"
             d="m 249.58,265.78 -23.45,6 c -0.892,0.229 -1.63,0.856 -2,1.7 l -9.93,22.07 c -0.386,0.844 -0.36,1.818 0.07,2.64 l 11.07,21.52 c 0.42,0.828 1.199,1.415 2.11,1.59 l 23.73,4.77 c 0.909,0.188 1.855,-0.056 2.56,-0.66 l 18.55,-15.57 c 0.713,-0.593 1.112,-1.483 1.08,-2.41 l -0.66,-24.2 c -0.018,-0.928 -0.465,-1.796 -1.21,-2.35 l -19.31,-14.6 c -0.745,-0.564 -1.71,-0.749 -2.61,-0.5 z m 1.14,62.48 -23.72,-4.77 c -1.57,-0.313 -2.91,-1.326 -3.64,-2.75 L 212.28,299.2 c -0.734,-1.422 -0.778,-3.101 -0.12,-4.56 l 9.93,-22.07 c 0.649,-1.464 1.937,-2.549 3.49,-2.94 l 23.44,-6 c 1.552,-0.404 3.204,-0.072 4.48,0.9 l 19.31,14.59 c 1.28,0.964 2.049,2.459 2.09,4.06 l 0.63,24.2 c 0.044,1.599 -0.644,3.132 -1.87,4.16 l -18.52,15.58 c -1.224,1.039 -2.857,1.459 -4.43,1.14 z"
             inkscape:connector-curvature="0" />
        </defs>
        <clipPath
           id="whatis-clip-path-1">
          <use
             xlink:href="#whatis-href-path-1"
             overflow="visible"
             id="use49"
             style="overflow:visible"
             x="0"
             y="0"
             width="100%"
             height="100%" />
        </clipPath>
        <g
           clip-path="url(#whatis-clip-path-1)"
           id="g54">
          <path
             d="m 203.349,321.932 13.749,-68.433 69.776,14.019 -13.749,68.433 z"
             id="path52"
             inkscape:connector-curvature="0"
             style="fill:#0b74de" />
        </g>
      </g>
    </g>
    <g
       id="g72"
       style="opacity:0.3">
      <g
         id="g70">
        <defs
           id="defs61">
          <path
             id="whatis-href-path-2"
             d="m 228.91,284.09 -2.66,13.22 c 0.977,-0.275 2.004,-0.316 3,-0.12 l 2.83,0.57 c 3.782,0.861 7.745,0.391 11.22,-1.33 -0.63,-0.84 -1.24,-1.69 -1.82,-2.52 -2.9,-4.17 -6.03,-8.2 -12.57,-9.82 z"
             inkscape:connector-curvature="0" />
        </defs>
        <clipPath
           id="whatis-clip-path-2">
          <use
             xlink:href="#whatis-href-path-2"
             overflow="visible"
             id="use63"
             style="overflow:visible"
             x="0"
             y="0"
             width="100%"
             height="100%" />
        </clipPath>
        <g
           clip-path="url(#whatis-clip-path-2)"
           id="g68">
          <path
             d="m 222.567,299.768 3.89,-19.363 22.373,4.495 -3.89,19.363 z"
             id="path66"
             inkscape:connector-curvature="0"
             style="fill:#0b74de" />
        </g>
      </g>
    </g>
    <g
       id="g86"
       style="opacity:0.3">
      <g
         id="g84">
        <defs
           id="defs75">
          <path
             id="whatis-href-path-3"
             d="m 264.14,291.29 c -6.55,-1 -10.62,1.56 -14.92,4.25 -4.66,2.94 -9.5,6 -17.55,4.36 l -2.83,-0.57 c -1.57,-0.296 -3.089,0.717 -3.42,2.28 l -0.73,3.62 35.23,7.08 z"
             inkscape:connector-curvature="0" />
        </defs>
        <clipPath
           id="whatis-clip-path-3">
          <use
             xlink:href="#whatis-href-path-3"
             overflow="visible"
             id="use77"
             style="overflow:visible"
             x="0"
             y="0"
             width="100%"
             height="100%" />
        </clipPath>
        <g
           clip-path="url(#whatis-clip-path-3)"
           id="g82">
          <path
             d="m 220.994,307.69 5.456,-27.157 41.373,8.312 -5.456,27.157 z"
             id="path80"
             inkscape:connector-curvature="0"
             style="fill:#0b74de" />
        </g>
      </g>
    </g>
    <g
       id="g100"
       style="opacity:0.3">
      <g
         id="g98">
        <defs
           id="defs89">
          <path
             id="whatis-href-path-4"
             d="m 246.08,286.29 c -2.43,-3.48 -4.86,-7 -10.88,-8.16 l -1.15,5.71 c 2.405,1.254 4.521,2.998 6.21,5.12 2.079,-0.549 4.048,-1.453 5.82,-2.67 z"
             inkscape:connector-curvature="0" />
        </defs>
        <clipPath
           id="whatis-clip-path-4">
          <use
             xlink:href="#whatis-href-path-4"
             overflow="visible"
             id="use91"
             style="overflow:visible"
             x="0"
             y="0"
             width="100%"
             height="100%" />
        </clipPath>
        <g
           clip-path="url(#whatis-clip-path-4)"
           id="g96">
          <path
             d="m 229.62,290.016 3.13,-15.579 18.177,3.652 -3.13,15.579 z"
             id="path94"
             inkscape:connector-curvature="0"
             style="fill:#0b74de" />
        </g>
      </g>
    </g>
    <g
       id="g114"
       style="opacity:0.3">
      <g
         id="g112">
        <defs
           id="defs103">
          <path
             id="whatis-href-path-5"
             d="m 259.51,284 c -5.05,-0.72 -8.19,1.26 -11.51,3.37 -1.972,1.371 -4.126,2.458 -6.4,3.23 0.5,0.7 1,1.42 1.52,2.13 0.64,0.91 1.29,1.83 2,2.72 1,-0.57 2,-1.19 3,-1.81 3.09,-1.94 6.28,-3.92 10.41,-4.56 z"
             inkscape:connector-curvature="0" />
        </defs>
        <clipPath
           id="whatis-clip-path-5">
          <use
             xlink:href="#whatis-href-path-5"
             overflow="visible"
             id="use105"
             style="overflow:visible"
             x="0"
             y="0"
             width="100%"
             height="100%" />
        </clipPath>
        <g
           clip-path="url(#whatis-clip-path-5)"
           id="g110">
          <path
             d="m 237.102,297.104 4.008,-19.951 22.098,4.44 -4.008,19.951 z"
             id="path108"
             inkscape:connector-curvature="0"
             style="fill:#0b74de" />
        </g>
      </g>
    </g>
  </g>
  <linearGradient
     id="whatis-linearGradient-3"
     gradientUnits="userSpaceOnUse"
     x1="128.1"
     y1="63.4439"
     x2="234.05"
     y2="63.4439"
     gradientTransform="matrix(1.2550984,-0.24624052,-0.24624052,-1.2550984,36.331566,521.64077)">
    <stop
       offset="0"
       stop-color="#FFFFFF"
       stop-opacity="0"
       id="stop117" />
    <stop
       offset="0.86"
       stop-color="#80C0FF"
       id="stop119" />
  </linearGradient>
  <path
     d="m 317.86889,401.73018 c -12.48347,-3.36535 -24.428,-8.48134 -35.47568,-15.19791 -21.07379,-15.53393 -51.3928,-5.24522 -71.52627,8.06328 -18.17215,12.01133 -19.16424,20.57385 -27.29557,26.49646 52.56753,-29.89053 134.29752,-19.36183 134.29752,-19.36183 z"
     id="path122"
     style="fill:url(#whatis-linearGradient-3);stroke-width:1.27902555"
     inkscape:connector-curvature="0" />
  <linearGradient
     id="whatis-linearGradient-4"
     gradientUnits="userSpaceOnUse"
     x1="178"
     y1="56.7089"
     x2="272.74"
     y2="56.7089"
     gradientTransform="matrix(1.2550984,-0.24624052,-0.24624052,-1.2550984,36.331566,521.64077)">
    <stop
       offset="0"
       stop-color="#FFFFFF"
       stop-opacity="0"
       id="stop124" />
    <stop
       offset="0.86"
       stop-color="#80C0FF"
       id="stop126" />
  </linearGradient>
  <path
     d="m 245.01143,402.74249 c 0,0 2.26396,-1.74757 16.17097,-8.72512 21.59903,-10.75461 50.45248,-23.59723 71.52625,-8.0633 24.75415,14.69456 35.07925,13.1772 35.07925,13.1772 0,0 -34.86979,4.96427 -49.94411,2.60382 -11.98647,-0.30729 -28.8283,-4.96688 -72.83236,1.0074 z"
     id="path129"
     style="fill:url(#whatis-linearGradient-4);stroke-width:1.27902555"
     inkscape:connector-curvature="0" />
  <path
     inkscape:connector-curvature="0"
     style="fill:#0b74de;fill-opacity:1;fill-rule:nonzero;stroke-width:7.91149807"
     d="M 380.0102,485.45175 H 197.15523 c -12.09055,0.0307 -23.53294,-5.4574 -31.06781,-14.9039 L 52.045818,327.5654 c -7.56142,-9.43798 -10.387582,-21.81232 -7.67224,-33.59283 L 85.102688,115.8359 c 2.64897,-11.79625 10.57645,-21.722301 21.501222,-26.921617 L 271.32025,9.8055219 c 10.89737,-5.2980051 23.62757,-5.2980051 34.52502,0 L 470.60896,89.056255 c 10.89783,5.233082 18.81334,15.144015 21.50121,26.921545 l 40.68176,178.13666 c 2.71535,11.78059 -0.11051,24.15486 -7.67223,33.59284 L 411.07809,470.54785 c -7.53494,9.4465 -18.97733,14.93567 -31.06789,14.9039 z M 278.61361,24.756672 113.84992,104.10204 c -6.31936,3.03275 -10.90635,8.78276 -12.45553,15.61353 L 60.712548,297.80496 c -1.57566,6.8211 0.0614,13.98737 4.45185,19.446 L 179.15865,460.04424 c 4.34488,5.49991 10.98348,8.69374 17.99658,8.65844 H 380.0102 c 7.01318,0.0384 13.65171,-3.15853 17.99666,-8.65844 L 512.23794,317.25096 c 4.3768,-5.46354 6.00042,-12.63219 4.40443,-19.446 L 475.77113,119.71557 c -1.54918,-6.83077 -6.13618,-12.58078 -12.45553,-15.61353 L 298.55191,24.756672 c -6.28989,-3.074266 -13.64841,-3.074266 -19.9383,0 z"
     id="path9" />
</svg>
